# xmcd CD database file
#
# Track frame offsets:
#	150
#	19827
#	36820
#	50845
#	64765
#	82092
#	99097
#	124917
#	139055
#	161102
#	180107
#	197292
#	220332
#
# Disc length: 3164 seconds
#
# Revision: 9
# Processed by: cddbd v1.5.2PL0 Copyright (c) Steve Scherf et al.
# Submitted via: CDex 1.70beta2
#
DISCID=af0c5a0d
DTITLE=The Mavericks - Trampoline
DYEAR=1998
DGENRE=Country
TTITLE0=Dance The Night Away
TTITLE1=Tell Me Why
TTITLE2=I Should Know
TTITLE3=Someone Should Tell Her
TTITLE4=To Be With You
TTITLE5=I've Got This Feeling
TTITLE6=Fool #1
TTITLE7=I Don't Even Know Your Name
TTITLE8=I Hope You Want Me Too
TTITLE9=Melbourne Mambo
TTITLE10=Dolores
TTITLE11=Save A Prayer
TTITLE12=Dream River
EXTD=YEAR: 1998
EXTT0=
EXTT1=
EXTT2=
EXTT3=
EXTT4=
EXTT5=
EXTT6=
EXTT7=
EXTT8=
EXTT9=
EXTT10=
EXTT11=
EXTT12=
PLAYORDER=
